# xmcd
#
# Track frame offsets:
#	150
#	14249
#	41184
#	57556
#	76202
#	108490
#	124764
#	140947
#	185409
#	200408
#
# Disc length: 2714 seconds
#
# Revision: 0
# Processed by: cddbd v1.5PL3 Copyright (c) Steve Scherf et al.
# Submitted via: EasyCDDAExtractor 5.0.5.1
#
DISCID=9a0a980a
DTITLE=Midwest - Nasty Habits
DYEAR=2004
DGENRE=Blues
TTITLE0=Sugar Sweet
TTITLE1=Do I Move You
TTITLE2=They Raided The Joint
TTITLE3=Don't Leave Me
TTITLE4=All Your Love
TTITLE5=Matchbox
TTITLE6=Nasty Habits
TTITLE7=Third Degree
TTITLE8=I'm Tore Down
TTITLE9=We Love The Blues
EXTD=
EXTT0=
EXTT1=
EXTT2=
EXTT3=
EXTT4=
EXTT5=
EXTT6=
EXTT7=
EXTT8=
EXTT9=
PLAYORDER=
